<mxfile host="app.diagrams.net" agent="Mozilla/5.0 (Windows NT 10.0; Win64; x64; rv:133.0) Gecko/20100101 Firefox/133.0" version="25.0.3">
  <diagram name="Страница — 1" id="DdPDL9rpIiZfMoMA2mmb">
    <mxGraphModel dx="922" dy="574" grid="1" gridSize="10" guides="1" tooltips="1" connect="1" arrows="1" fold="1" page="1" pageScale="1" pageWidth="827" pageHeight="1169" math="0" shadow="0">
      <root>
        <mxCell id="0" />
        <mxCell id="1" parent="0" />
        <mxCell id="_gl7X0-CQ9Cq_rELzgtP-4" value="" style="edgeStyle=orthogonalEdgeStyle;rounded=0;orthogonalLoop=1;jettySize=auto;html=1;" edge="1" parent="1" source="_gl7X0-CQ9Cq_rELzgtP-1" target="_gl7X0-CQ9Cq_rELzgtP-3">
          <mxGeometry relative="1" as="geometry" />
        </mxCell>
        <mxCell id="_gl7X0-CQ9Cq_rELzgtP-1" value="double f(double x)" style="shape=process;whiteSpace=wrap;html=1;backgroundOutline=1;" vertex="1" parent="1">
          <mxGeometry x="40" width="160" height="60" as="geometry" />
        </mxCell>
        <mxCell id="_gl7X0-CQ9Cq_rELzgtP-3" value="return exp(x) - exp(-x) - 2;" style="ellipse;whiteSpace=wrap;html=1;" vertex="1" parent="1">
          <mxGeometry x="20" y="110" width="200" height="80" as="geometry" />
        </mxCell>
        <mxCell id="_gl7X0-CQ9Cq_rELzgtP-7" value="" style="edgeStyle=orthogonalEdgeStyle;rounded=0;orthogonalLoop=1;jettySize=auto;html=1;" edge="1" parent="1" source="_gl7X0-CQ9Cq_rELzgtP-5" target="_gl7X0-CQ9Cq_rELzgtP-6">
          <mxGeometry relative="1" as="geometry" />
        </mxCell>
        <mxCell id="_gl7X0-CQ9Cq_rELzgtP-5" value="double f1(double x)" style="shape=process;whiteSpace=wrap;html=1;backgroundOutline=1;" vertex="1" parent="1">
          <mxGeometry x="310" width="160" height="60" as="geometry" />
        </mxCell>
        <mxCell id="_gl7X0-CQ9Cq_rELzgtP-6" value="return exp(x) + exp(-x);" style="ellipse;whiteSpace=wrap;html=1;" vertex="1" parent="1">
          <mxGeometry x="307.5" y="110" width="165" height="80" as="geometry" />
        </mxCell>
        <mxCell id="_gl7X0-CQ9Cq_rELzgtP-10" value="" style="edgeStyle=orthogonalEdgeStyle;rounded=0;orthogonalLoop=1;jettySize=auto;html=1;" edge="1" parent="1" source="_gl7X0-CQ9Cq_rELzgtP-8" target="_gl7X0-CQ9Cq_rELzgtP-9">
          <mxGeometry relative="1" as="geometry" />
        </mxCell>
        <mxCell id="_gl7X0-CQ9Cq_rELzgtP-8" value="double f2(double x)" style="shape=process;whiteSpace=wrap;html=1;backgroundOutline=1;" vertex="1" parent="1">
          <mxGeometry x="600" width="150" height="60" as="geometry" />
        </mxCell>
        <mxCell id="_gl7X0-CQ9Cq_rELzgtP-9" value="return exp(x) - exp(-x);" style="ellipse;whiteSpace=wrap;html=1;" vertex="1" parent="1">
          <mxGeometry x="597.5" y="110" width="155" height="80" as="geometry" />
        </mxCell>
        <mxCell id="_gl7X0-CQ9Cq_rELzgtP-11" value="{" style="text;html=1;align=center;verticalAlign=middle;whiteSpace=wrap;rounded=0;" vertex="1" parent="1">
          <mxGeometry x="80" y="70" width="60" height="30" as="geometry" />
        </mxCell>
        <mxCell id="_gl7X0-CQ9Cq_rELzgtP-12" value="{" style="text;html=1;align=center;verticalAlign=middle;whiteSpace=wrap;rounded=0;" vertex="1" parent="1">
          <mxGeometry x="354" y="70" width="60" height="30" as="geometry" />
        </mxCell>
        <mxCell id="_gl7X0-CQ9Cq_rELzgtP-13" value="{" style="text;html=1;align=center;verticalAlign=middle;whiteSpace=wrap;rounded=0;" vertex="1" parent="1">
          <mxGeometry x="640" y="70" width="60" height="30" as="geometry" />
        </mxCell>
        <mxCell id="_gl7X0-CQ9Cq_rELzgtP-14" value="}" style="text;html=1;align=center;verticalAlign=middle;whiteSpace=wrap;rounded=0;" vertex="1" parent="1">
          <mxGeometry x="90" y="200" width="60" height="30" as="geometry" />
        </mxCell>
        <mxCell id="_gl7X0-CQ9Cq_rELzgtP-15" value="}" style="text;html=1;align=center;verticalAlign=middle;whiteSpace=wrap;rounded=0;" vertex="1" parent="1">
          <mxGeometry x="360" y="200" width="60" height="30" as="geometry" />
        </mxCell>
        <mxCell id="_gl7X0-CQ9Cq_rELzgtP-16" value="}" style="text;html=1;align=center;verticalAlign=middle;whiteSpace=wrap;rounded=0;" vertex="1" parent="1">
          <mxGeometry x="645" y="200" width="60" height="30" as="geometry" />
        </mxCell>
      </root>
    </mxGraphModel>
  </diagram>
</mxfile>
